Facade-Bold.ufo
<glyph name="exclam" format="2">
  <advance width="480"/>
  <unicode hex="0021"/>
  <outline>
    <contour>
      <point x="174" y="330" type="line"/>
      <point x="306" y="330" type="line"/>
      <point x="342" y="900" type="line"/>
      <point x="138" y="900" type="line"/>
    </contour>
    <contour>
      <point x="240" y="-20" type="curve" smooth="yes"/>
      <point x="299" y="-20"/>
      <point x="345" y="26"/>
      <point x="345" y="85" type="curve" smooth="yes"/>
      <point x="345" y="144"/>
      <point x="299" y="190"/>
      <point x="240" y="190" type="curve" smooth="yes"/>
      <point x="181" y="190"/>
      <point x="135" y="144"/>
      <point x="135" y="85" type="curve" smooth="yes"/>
      <point x="135" y="26"/>
      <point x="181" y="-20"/>
    </contour>
  </outline>
</glyph>
<glyph name="ampersand" format="2">
  <advance width="800"/>
  <unicode hex="0026"/>
  <outline>
    <contour>
      <point x="360" y="-18" type="curve" smooth="yes"/>
      <point x="441" y="-18"/>
      <point x="521" y="6"/>
      <point x="589" y="55" type="curve"/>
      <point x="528" y="77" type="line"/>
      <point x="586" y="0" type="line"/>
      <point x="792" y="0" type="line"/>
      <point x="693" y="135" type="line"/>
      <point x="727" y="170"/>
      <point x="753" y="210"/>
      <point x="773" y="255" type="curve"/>
      <point x="663" y="406" type="line"/>
      <point x="661" y="351"/>
      <point x="641" y="297"/>
      <point x="608" y="253" type="curve"/>
      <point x="435" y="492" type="line"/>
      <point x="453" y="501" type="line" smooth="yes"/>
      <point x="497" y="523"/>
      <point x="606" y="581"/>
      <point x="606" y="701" type="curve" smooth="yes"/>
      <point x="606" y="825"/>
      <point x="489" y="918"/>
      <point x="366" y="918" type="curve" smooth="yes"/>
      <point x="244" y="918"/>
      <point x="136" y="826"/>
      <point x="136" y="700" type="curve" smooth="yes"/>
      <point x="136" y="635"/>
      <point x="165" y="587"/>
      <point x="200" y="538" type="curve" smooth="yes"/>
      <point x="205" y="531" type="line"/>
      <point x="105" y="470"/>
      <point x="45" y="383"/>
      <point x="45" y="270" type="curve" smooth="yes"/>
      <point x="45" y="104"/>
      <point x="176" y="-18"/>
    </contour>
    <contour>
      <point x="380" y="132" type="curve" smooth="yes"/>
      <point x="272" y="132"/>
      <point x="213" y="202"/>
      <point x="213" y="285" type="curve" smooth="yes"/>
      <point x="213" y="352"/>
      <point x="252" y="392"/>
      <point x="287" y="415" type="curve"/>
      <point x="476" y="153" type="line"/>
      <point x="446" y="140"/>
      <point x="414" y="132"/>
    </contour>
    <contour>
      <point x="352" y="602" type="line"/>
      <point x="330" y="633" type="line" smooth="yes"/>
      <point x="310" y="661"/>
      <point x="295" y="684"/>
      <point x="295" y="712" type="curve" smooth="yes"/>
      <point x="295" y="751"/>
      <point x="326" y="786"/>
      <point x="372" y="786" type="curve" smooth="yes"/>
      <point x="415" y="786"/>
      <point x="447" y="751"/>
      <point x="447" y="708" type="curve" smooth="yes"/>
      <point x="447" y="655"/>
      <point x="401" y="630"/>
      <point x="382" y="619" type="curve" smooth="yes"/>
    </contour>
  </outline>
</glyph>
<glyph name="quotesingle" format="2">
  <advance width="290"/>
  <unicode hex="0027"/>
  <outline>
    <contour>
      <point x="103" y="540" type="line"/>
      <point x="187" y="540" type="line"/>
      <point x="247" y="900" type="line"/>
      <point x="43" y="900" type="line"/>
    </contour>
  </outline>
</glyph>
<glyph name="question" format="2">
  <advance width="480"/>
  <unicode hex="003F"/>
  <outline>
    <contour>
      <point x="174" y="330" type="curve"/>
      <point x="306" y="330" type="line"/>
      <point x="325" y="470"/>
      <point x="462" y="539"/>
      <point x="462" y="700" type="curve" smooth="yes"/>
      <point x="462" y="828"/>
      <point x="371" y="918"/>
      <point x="230" y="918" type="curve" smooth="yes"/>
      <point x="165" y="918"/>
      <point x="112" y="898"/>
      <point x="66" y="864" type="curve"/>
      <point x="66" y="690" type="line"/>
      <point x="95" y="724"/>
      <point x="141" y="762"/>
      <point x="204" y="762" type="curve" smooth="yes"/>
      <point x="261" y="762"/>
      <point x="300" y="735"/>
      <point x="300" y="681" type="curve" smooth="yes"/>
      <point x="300" y="581"/>
      <point x="174" y="524"/>
    </contour>
    <contour>
      <point x="240" y="-20" type="curve" smooth="yes"/>
      <point x="299" y="-20"/>
      <point x="345" y="26"/>
      <point x="345" y="85" type="curve" smooth="yes"/>
      <point x="345" y="144"/>
      <point x="299" y="190"/>
      <point x="240" y="190" type="curve" smooth="yes"/>
      <point x="181" y="190"/>
      <point x="135" y="144"/>
      <point x="135" y="85" type="curve" smooth="yes"/>
      <point x="135" y="26"/>
      <point x="181" y="-20"/>
    </contour>
  </outline>
</glyph>
<glyph name="M" format="2">
  <advance width="1040"/>
  <unicode hex="004D"/>
  <outline>
    <contour>
      <point x="96" y="0" type="line"/>
      <point x="264" y="0" type="line"/>
      <point x="264" y="258" type="line" smooth="yes"/>
      <point x="264" y="318"/>
      <point x="264" y="389"/>
      <point x="253" y="486" type="curve"/>
      <point x="292" y="422"/>
      <point x="337" y="363"/>
      <point x="368" y="323" type="curve" smooth="yes"/>
      <point x="521" y="125" type="line"/>
      <point x="669" y="323" type="line" smooth="yes"/>
      <point x="701" y="366"/>
      <point x="740" y="413"/>
      <point x="781" y="483" type="curve"/>
      <point x="770" y="388"/>
      <point x="770" y="317"/>
      <point x="770" y="258" type="curve" smooth="yes"/>
      <point x="770" y="0" type="line"/>
      <point x="944" y="0" type="line"/>
      <point x="944" y="930" type="line"/>
      <point x="524" y="398" type="line"/>
      <point x="96" y="930" type="line"/>
    </contour>
  </outline>
</glyph>
<glyph name="O" format="2">
  <advance width="1060"/>
  <unicode hex="004F"/>
  <anchor x="530" y="0" name="bottom"/>
  <anchor x="530" y="450" name="center"/>
  <anchor x="560" y="0" name="ogonek"/>
  <anchor x="530" y="900" name="top"/>
  <anchor x="530" y="480" name="top-vertical"/>
  <anchor x="60" y="900" name="topleft"/>
  <anchor x="1000" y="900" name="topright"/>
  <outline>
    <contour>
      <point x="530" y="-18" type="curve" smooth="yes"/>
      <point x="793" y="-18"/>
      <point x="1006" y="191"/>
      <point x="1006" y="450" type="curve" smooth="yes"/>
      <point x="1006" y="709"/>
      <point x="793" y="918"/>
      <point x="530" y="918" type="curve" smooth="yes"/>
      <point x="267" y="918"/>
      <point x="54" y="709"/>
      <point x="54" y="450" type="curve" smooth="yes"/>
      <point x="54" y="191"/>
      <point x="267" y="-18"/>
    </contour>
    <contour>
      <point x="530" y="156" type="curve" smooth="yes"/>
      <point x="368" y="156"/>
      <point x="242" y="287"/>
      <point x="242" y="450" type="curve" smooth="yes"/>
      <point x="242" y="613"/>
      <point x="368" y="744"/>
      <point x="530" y="744" type="curve" smooth="yes"/>
      <point x="692" y="744"/>
      <point x="818" y="613"/>
      <point x="818" y="450" type="curve" smooth="yes"/>
      <point x="818" y="287"/>
      <point x="692" y="156"/>
    </contour>
  </outline>
</glyph>
<glyph name="R" format="2">
  <advance width="800"/>
  <unicode hex="0052"/>
  <anchor x="439" y="0" name="bottom"/>
  <anchor x="325" y="900" name="top"/>
  <outline>
    <contour>
      <point x="99" y="0" type="line"/>
      <point x="273" y="0" type="line"/>
      <point x="273" y="900" type="line"/>
      <point x="99" y="900" type="line"/>
    </contour>
    <contour>
      <point x="186" y="342" type="line"/>
      <point x="374" y="342" type="line" smooth="yes"/>
      <point x="564" y="342"/>
      <point x="685" y="460"/>
      <point x="685" y="616" type="curve" smooth="yes"/>
      <point x="685" y="769"/>
      <point x="570" y="900"/>
      <point x="374" y="900" type="curve" smooth="yes"/>
      <point x="186" y="900" type="line"/>
      <point x="186" y="738" type="line"/>
      <point x="370" y="738" type="line" smooth="yes"/>
      <point x="454" y="738"/>
      <point x="511" y="687"/>
      <point x="511" y="616" type="curve" smooth="yes"/>
      <point x="511" y="556"/>
      <point x="468" y="492"/>
      <point x="370" y="492" type="curve" smooth="yes"/>
      <point x="186" y="492" type="line"/>
    </contour>
    <contour>
      <point x="609" y="0" type="line"/>
      <point x="806" y="0" type="line"/>
      <point x="546" y="432" type="line"/>
      <point x="357" y="432" type="line"/>
    </contour>
  </outline>
</glyph>
<glyph name="l" format="2">
  <advance width="310"/>
  <unicode hex="006C"/>
  <anchor x="155" y="0" name="bottom"/>
  <anchor x="155" y="480" name="center"/>
  <anchor x="365" y="420" name="periodcentered"/>
  <anchor x="155" y="960" name="top"/>
  <anchor x="242" y="960" name="topright"/>
  <outline>
    <contour>
      <point x="68" y="0" type="line"/>
      <point x="242" y="0" type="line"/>
      <point x="242" y="960" type="line"/>
      <point x="68" y="960" type="line"/>
    </contour>
  </outline>
</glyph>
<glyph name="o" format="2">
  <advance width="720"/>
  <unicode hex="006F"/>
  <anchor x="360" y="0" name="bottom"/>
  <anchor x="360" y="300" name="center"/>
  <anchor x="390" y="0" name="ogonek"/>
  <anchor x="360" y="600" name="top"/>
  <anchor x="520" y="600" name="topright"/>
  <outline>
    <contour>
      <point x="360" y="-20" type="curve" smooth="yes"/>
      <point x="539" y="-20"/>
      <point x="684" y="123"/>
      <point x="684" y="300" type="curve" smooth="yes"/>
      <point x="684" y="477"/>
      <point x="539" y="620"/>
      <point x="360" y="620" type="curve" smooth="yes"/>
      <point x="181" y="620"/>
      <point x="36" y="477"/>
      <point x="36" y="300" type="curve" smooth="yes"/>
      <point x="36" y="123"/>
      <point x="181" y="-20"/>
    </contour>
    <contour>
      <point x="360" y="136" type="curve" smooth="yes"/>
      <point x="270" y="136"/>
      <point x="199" y="209"/>
      <point x="199" y="300" type="curve" smooth="yes"/>
      <point x="199" y="391"/>
      <point x="270" y="464"/>
      <point x="360" y="464" type="curve" smooth="yes"/>
      <point x="449" y="464"/>
      <point x="521" y="391"/>
      <point x="521" y="300" type="curve" smooth="yes"/>
      <point x="521" y="209"/>
      <point x="449" y="136"/>
    </contour>
  </outline>
</glyph>
<glyph name="p" format="2">
  <advance width="740"/>
  <unicode hex="0070"/>
  <anchor x="390" y="0" name="bottom"/>
  <anchor x="390" y="600" name="top"/>
  <outline>
    <contour>
      <point x="66" y="-300" type="line"/>
      <point x="240" y="-300" type="line"/>
      <point x="240" y="150" type="line"/>
      <point x="172" y="120" type="line"/>
      <point x="215" y="38"/>
      <point x="298" y="-16"/>
      <point x="403" y="-16" type="curve" smooth="yes"/>
      <point x="570" y="-16"/>
      <point x="704" y="126"/>
      <point x="704" y="300" type="curve" smooth="yes"/>
      <point x="704" y="474"/>
      <point x="570" y="616"/>
      <point x="403" y="616" type="curve" smooth="yes"/>
      <point x="298" y="616"/>
      <point x="215" y="562"/>
      <point x="172" y="480" type="curve"/>
      <point x="216" y="450" type="line"/>
      <point x="216" y="600" type="line"/>
      <point x="66" y="600" type="line"/>
    </contour>
    <contour>
      <point x="383" y="137" type="curve" smooth="yes"/>
      <point x="295" y="137"/>
      <point x="224" y="210"/>
      <point x="224" y="300" type="curve" smooth="yes"/>
      <point x="224" y="390"/>
      <point x="295" y="463"/>
      <point x="383" y="463" type="curve" smooth="yes"/>
      <point x="471" y="463"/>
      <point x="542" y="390"/>
      <point x="542" y="300" type="curve" smooth="yes"/>
      <point x="542" y="210"/>
      <point x="471" y="137"/>
    </contour>
  </outline>
</glyph>
<glyph name="w" format="2">
  <advance width="1000"/>
  <unicode hex="0077"/>
  <anchor x="500" y="0" name="bottom"/>
  <anchor x="504" y="600" name="top"/>
  <outline>
    <contour>
      <point x="305" y="-30" type="line"/>
      <point x="442" y="201" type="line" smooth="yes"/>
      <point x="463" y="236"/>
      <point x="482" y="271"/>
      <point x="500" y="311" type="curve"/>
      <point x="518" y="271"/>
      <point x="537" y="236"/>
      <point x="558" y="201" type="curve" smooth="yes"/>
      <point x="695" y="-30" type="line"/>
      <point x="994" y="600" type="line"/>
      <point x="815" y="600" type="line"/>
      <point x="723" y="407" type="line" smooth="yes"/>
      <point x="707" y="373"/>
      <point x="690" y="339"/>
      <point x="673" y="286" type="curve"/>
      <point x="655" y="335"/>
      <point x="637" y="369"/>
      <point x="621" y="399" type="curve" smooth="yes"/>
      <point x="504" y="620" type="line"/>
      <point x="391" y="399" type="line" smooth="yes"/>
      <point x="374" y="366"/>
      <point x="356" y="332"/>
      <point x="337" y="286" type="curve"/>
      <point x="319" y="335"/>
      <point x="302" y="373"/>
      <point x="285" y="407" type="curve" smooth="yes"/>
      <point x="193" y="600" type="line"/>
      <point x="6" y="600" type="line"/>
    </contour>
  </outline>
</glyph>
<glyph name="y" format="2">
  <advance width="690"/>
  <unicode hex="0079"/>
  <anchor x="461" y="0" name="bottom"/>
  <anchor x="347" y="600" name="top"/>
  <outline>
    <contour>
      <point x="51" y="-300" type="line"/>
      <point x="238" y="-300" type="line"/>
      <point x="684" y="600" type="line"/>
      <point x="499" y="600" type="line"/>
      <point x="391" y="380" type="line" smooth="yes"/>
      <point x="344" y="285"/>
      <point x="331" y="238"/>
      <point x="305" y="149" type="curve"/>
      <point x="384" y="148" type="line"/>
      <point x="358" y="238"/>
      <point x="350" y="284"/>
      <point x="304" y="380" type="curve" smooth="yes"/>
      <point x="198" y="600" type="line"/>
      <point x="6" y="600" type="line"/>
      <point x="251" y="102" type="line"/>
    </contour>
  </outline>
</glyph>
<glyph name="guillemetleft" format="2">
  <advance width="630"/>
  <unicode hex="00AB"/>
  <outline>
    <contour>
      <point x="447" y="60" type="line"/>
      <point x="609" y="60" type="line"/>
      <point x="447" y="300" type="line"/>
      <point x="609" y="540" type="line"/>
      <point x="447" y="540" type="line"/>
      <point x="285" y="300" type="line"/>
    </contour>
    <contour>
      <point x="177" y="60" type="line"/>
      <point x="339" y="60" type="line"/>
      <point x="177" y="300" type="line"/>
      <point x="339" y="540" type="line"/>
      <point x="177" y="540" type="line"/>
      <point x="15" y="300" type="line"/>
    </contour>
  </outline>
</glyph>
<glyph name="ordmasculine" format="2">
  <advance width="480"/>
  <unicode hex="00BA"/>
  <outline>
    <contour>
      <point x="240" y="402" type="curve" smooth="yes"/>
      <point x="354" y="402"/>
      <point x="446" y="491"/>
      <point x="446" y="600" type="curve" smooth="yes"/>
      <point x="446" y="709"/>
      <point x="354" y="798"/>
      <point x="240" y="798" type="curve" smooth="yes"/>
      <point x="126" y="798"/>
      <point x="34" y="709"/>
      <point x="34" y="600" type="curve" smooth="yes"/>
      <point x="34" y="491"/>
      <point x="126" y="402"/>
    </contour>
    <contour>
      <point x="240" y="519" type="curve" smooth="yes"/>
      <point x="193" y="519"/>
      <point x="157" y="555"/>
      <point x="157" y="600" type="curve" smooth="yes"/>
      <point x="157" y="645"/>
      <point x="193" y="681"/>
      <point x="240" y="681" type="curve" smooth="yes"/>
      <point x="286" y="681"/>
      <point x="323" y="645"/>
      <point x="323" y="600" type="curve" smooth="yes"/>
      <point x="323" y="555"/>
      <point x="286" y="519"/>
    </contour>
  </outline>
</glyph>
<glyph name="eth" format="2">
  <advance width="720"/>
  <unicode hex="00F0"/>
  <outline>
    <contour>
      <point x="361" y="-20" type="curve" smooth="yes"/>
      <point x="541" y="-20"/>
      <point x="684" y="120"/>
      <point x="684" y="310" type="curve" smooth="yes"/>
      <point x="684" y="402"/>
      <point x="651" y="497"/>
      <point x="585" y="598" type="curve" smooth="yes"/>
      <point x="534" y="676"/>
      <point x="422" y="822"/>
      <point x="303" y="960" type="curve"/>
      <point x="118" y="960" type="line"/>
      <point x="240" y="819"/>
      <point x="361" y="677"/>
      <point x="455" y="536" type="curve"/>
      <point x="514" y="542" type="line"/>
      <point x="468" y="593"/>
      <point x="407" y="614"/>
      <point x="339" y="614" type="curve" smooth="yes"/>
      <point x="172" y="614"/>
      <point x="36" y="474"/>
      <point x="36" y="301" type="curve" smooth="yes"/>
      <point x="36" y="123"/>
      <point x="180" y="-20"/>
    </contour>
    <contour>
      <point x="360" y="136" type="curve" smooth="yes"/>
      <point x="270" y="136"/>
      <point x="199" y="209"/>
      <point x="199" y="300" type="curve" smooth="yes"/>
      <point x="199" y="391"/>
      <point x="270" y="464"/>
      <point x="360" y="464" type="curve" smooth="yes"/>
      <point x="449" y="464"/>
      <point x="521" y="391"/>
      <point x="521" y="300" type="curve" smooth="yes"/>
      <point x="521" y="209"/>
      <point x="449" y="136"/>
    </contour>
    <contour>
      <point x="168" y="645" type="line"/>
      <point x="543" y="889" type="line"/>
      <point x="497" y="960" type="line"/>
      <point x="122" y="717" type="line"/>
    </contour>
  </outline>
</glyph>
<glyph name="uhorn" format="2">
  <advance width="840"/>
  <unicode hex="01B0"/>
  <anchor x="348" y="0" name="bottom"/>
  <anchor x="344" y="600" name="top"/>
  <outline>
    <contour>
      <point x="298" y="-20" type="curve" smooth="yes"/>
      <point x="426" y="-20"/>
      <point x="532" y="74"/>
      <point x="532" y="245" type="curve"/>
      <point x="460" y="262" type="line"/>
      <point x="460" y="180"/>
      <point x="404" y="136"/>
      <point x="344" y="136" type="curve" smooth="yes"/>
      <point x="270" y="136"/>
      <point x="228" y="197"/>
      <point x="228" y="264" type="curve" smooth="yes"/>
      <point x="228" y="600" type="line"/>
      <point x="54" y="600" type="line"/>
      <point x="54" y="241" type="line" smooth="yes"/>
      <point x="54" y="75"/>
      <point x="171" y="-20"/>
    </contour>
    <contour>
      <point x="476" y="0" type="line"/>
      <point x="634" y="0" type="line"/>
      <point x="634" y="433" type="line"/>
      <point x="622" y="440" type="line"/>
      <point x="622" y="600" type="line"/>
      <point x="460" y="600" type="line"/>
      <point x="460" y="187" type="line"/>
      <point x="476" y="160" type="line"/>
    </contour>
    <contour>
      <point x="675" y="386" type="curve" smooth="yes"/>
      <point x="760" y="386"/>
      <point x="836" y="450"/>
      <point x="836" y="568" type="curve" smooth="yes"/>
      <point x="836" y="597"/>
      <point x="831" y="628"/>
      <point x="812" y="660" type="curve"/>
      <point x="668" y="660" type="line"/>
      <point x="687" y="627"/>
      <point x="692" y="592"/>
      <point x="692" y="568" type="curve" smooth="yes"/>
      <point x="692" y="516"/>
      <point x="662" y="494"/>
      <point x="631" y="494" type="curve" smooth="yes"/>
      <point x="606" y="494"/>
      <point x="583" y="505"/>
      <point x="570" y="528" type="curve"/>
      <point x="570" y="423" type="line"/>
      <point x="598" y="399"/>
      <point x="636" y="386"/>
    </contour>
  </outline>
</glyph>
<glyph name="schwa" format="2">
  <advance width="690"/>
  <unicode hex="0259"/>
  <anchor x="346" y="0" name="bottom"/>
  <anchor x="60" y="590" name="ogonek"/>
  <anchor x="346" y="600" name="top"/>
  <outline>
    <contour>
      <point x="340" y="-20" type="curve" smooth="yes"/>
      <point x="515" y="-20"/>
      <point x="654" y="113"/>
      <point x="654" y="294" type="curve" smooth="yes"/>
      <point x="654" y="484"/>
      <point x="516" y="620"/>
      <point x="313" y="620" type="curve" smooth="yes"/>
      <point x="232" y="620"/>
      <point x="154" y="597"/>
      <point x="94" y="552" type="curve"/>
      <point x="132" y="396" type="line"/>
      <point x="171" y="441"/>
      <point x="233" y="476"/>
      <point x="309" y="476" type="curve" smooth="yes"/>
      <point x="424" y="476"/>
      <point x="494" y="402"/>
      <point x="494" y="300" type="curve"/>
      <point x="503" y="300" type="line"/>
      <point x="503" y="190"/>
      <point x="435" y="118"/>
      <point x="342" y="118" type="curve" smooth="yes"/>
      <point x="244" y="118"/>
      <point x="181" y="190"/>
      <point x="181" y="300" type="curve"/>
      <point x="152" y="244" type="line"/>
      <point x="194" y="231"/>
      <point x="237" y="225"/>
      <point x="290" y="225" type="curve" smooth="yes"/>
      <point x="396" y="225" type="line" smooth="yes"/>
      <point x="443" y="225"/>
      <point x="485" y="233"/>
      <point x="532" y="245" type="curve"/>
      <point x="532" y="331" type="line"/>
      <point x="485" y="343"/>
      <point x="443" y="351"/>
      <point x="396" y="351" type="curve" smooth="yes"/>
      <point x="30" y="351" type="line"/>
      <point x="30" y="290" type="line" smooth="yes"/>
      <point x="30" y="113"/>
      <point x="163" y="-20"/>
    </contour>
  </outline>
</glyph>
<glyph name="dotbelowcomb" format="2">
  <unicode hex="0323"/>
  <anchor x="360" y="0" name="_bottom"/>
  <anchor x="360" y="-252" name="bottom"/>
  <outline>
    <contour>
      <point x="360" y="-273" type="curve" smooth="yes"/>
      <point x="413" y="-273"/>
      <point x="453" y="-232"/>
      <point x="453" y="-180" type="curve" smooth="yes"/>
      <point x="453" y="-127"/>
      <point x="413" y="-87"/>
      <point x="360" y="-87" type="curve" smooth="yes"/>
      <point x="308" y="-87"/>
      <point x="267" y="-127"/>
      <point x="267" y="-180" type="curve" smooth="yes"/>
      <point x="267" y="-232"/>
      <point x="308" y="-273"/>
    </contour>
  </outline>
</glyph>
<glyph name="brevebelowcomb" format="2">
  <unicode hex="032E"/>
  <anchor x="360" y="0" name="_bottom"/>
  <anchor x="360" y="-249" name="bottom"/>
  <outline>
    <contour>
      <point x="360" y="-261" type="curve" smooth="yes"/>
      <point x="475" y="-261"/>
      <point x="564" y="-177"/>
      <point x="564" y="-63" type="curve"/>
      <point x="438" y="-63" type="line"/>
      <point x="438" y="-106"/>
      <point x="402" y="-141"/>
      <point x="360" y="-141" type="curve" smooth="yes"/>
      <point x="318" y="-141"/>
      <point x="282" y="-106"/>
      <point x="282" y="-63" type="curve"/>
      <point x="156" y="-63" type="line"/>
      <point x="156" y="-175"/>
      <point x="246" y="-261"/>
    </contour>
  </outline>
</glyph>
<glyph name="pi" format="2">
  <advance width="700"/>
  <unicode hex="03C0"/>
  <anchor x="350" y="0" name="bottom"/>
  <anchor x="350" y="600" name="top"/>
  <outline>
    <contour>
      <point x="460" y="0" type="line"/>
      <point x="634" y="0" type="line"/>
      <point x="634" y="600" type="line"/>
      <point x="460" y="600" type="line"/>
    </contour>
    <contour>
      <point x="66" y="0" type="line"/>
      <point x="240" y="0" type="line"/>
      <point x="240" y="600" type="line"/>
      <point x="66" y="600" type="line"/>
    </contour>
    <contour>
      <point x="126" y="444" type="line"/>
      <point x="574" y="444" type="line"/>
      <point x="574" y="600" type="line"/>
      <point x="126" y="600" type="line"/>
    </contour>
  </outline>
</glyph>
<glyph name="emdash" format="2">
  <advance width="1440"/>
  <unicode hex="2014"/>
  <outline>
    <contour>
      <point x="60" y="225" type="line"/>
      <point x="1380" y="225" type="line"/>
      <point x="1380" y="375" type="line"/>
      <point x="60" y="375" type="line"/>
    </contour>
  </outline>
</glyph>
<glyph name="euro" format="2">
  <advance width="750"/>
  <unicode hex="20AC"/>
  <outline>
    <contour>
      <point x="496" y="-20" type="curve" smooth="yes"/>
      <point x="569" y="-20"/>
      <point x="644" y="8"/>
      <point x="702" y="61" type="curve"/>
      <point x="657" y="238" type="line"/>
      <point x="624" y="183"/>
      <point x="567" y="136"/>
      <point x="503" y="136" type="curve" smooth="yes"/>
      <point x="389" y="136"/>
      <point x="330" y="256"/>
      <point x="330" y="450" type="curve" smooth="yes"/>
      <point x="330" y="644"/>
      <point x="389" y="764"/>
      <point x="503" y="764" type="curve" smooth="yes"/>
      <point x="567" y="764"/>
      <point x="624" y="716"/>
      <point x="657" y="662" type="curve"/>
      <point x="702" y="839" type="line"/>
      <point x="644" y="892"/>
      <point x="569" y="920"/>
      <point x="496" y="920" type="curve" smooth="yes"/>
      <point x="297" y="920"/>
      <point x="162" y="730"/>
      <point x="162" y="450" type="curve" smooth="yes"/>
      <point x="162" y="170"/>
      <point x="297" y="-20"/>
    </contour>
    <contour>
      <point x="72" y="294" type="line"/>
      <point x="558" y="294" type="line"/>
      <point x="558" y="402" type="line"/>
      <point x="72" y="402" type="line"/>
    </contour>
    <contour>
      <point x="72" y="498" type="line"/>
      <point x="558" y="498" type="line"/>
      <point x="558" y="606" type="line"/>
      <point x="72" y="606" type="line"/>
    </contour>
  </outline>
</glyph>
<glyph name="careof" format="2">
  <advance width="960"/>
  <unicode hex="2105"/>
  <outline>
    <contour>
      <point x="79" y="0" type="line"/>
      <point x="221" y="0" type="line"/>
      <point x="840" y="900" type="line"/>
      <point x="698" y="900" type="line"/>
    </contour>
    <contour>
      <point x="720" y="-18" type="curve" smooth="yes"/>
      <point x="834" y="-18"/>
      <point x="926" y="71"/>
      <point x="926" y="180" type="curve" smooth="yes"/>
      <point x="926" y="289"/>
      <point x="834" y="378"/>
      <point x="720" y="378" type="curve" smooth="yes"/>
      <point x="606" y="378"/>
      <point x="514" y="289"/>
      <point x="514" y="180" type="curve" smooth="yes"/>
      <point x="514" y="71"/>
      <point x="606" y="-18"/>
    </contour>
    <contour>
      <point x="720" y="99" type="curve" smooth="yes"/>
      <point x="673" y="99"/>
      <point x="637" y="135"/>
      <point x="637" y="180" type="curve" smooth="yes"/>
      <point x="637" y="225"/>
      <point x="673" y="261"/>
      <point x="720" y="261" type="curve" smooth="yes"/>
      <point x="766" y="261"/>
      <point x="803" y="225"/>
      <point x="803" y="180" type="curve" smooth="yes"/>
      <point x="803" y="135"/>
      <point x="766" y="99"/>
    </contour>
    <contour>
      <point x="240" y="522" type="curve" smooth="yes"/>
      <point x="280" y="522"/>
      <point x="317" y="533"/>
      <point x="349" y="552" type="curve"/>
      <point x="320" y="667" type="line"/>
      <point x="302" y="650"/>
      <point x="281" y="639"/>
      <point x="249" y="639" type="curve" smooth="yes"/>
      <point x="198" y="639"/>
      <point x="163" y="675"/>
      <point x="163" y="720" type="curve" smooth="yes"/>
      <point x="163" y="765"/>
      <point x="198" y="801"/>
      <point x="249" y="801" type="curve" smooth="yes"/>
      <point x="281" y="801"/>
      <point x="303" y="790"/>
      <point x="320" y="773" type="curve"/>
      <point x="349" y="888" type="line"/>
      <point x="317" y="907"/>
      <point x="280" y="918"/>
      <point x="240" y="918" type="curve" smooth="yes"/>
      <point x="126" y="918"/>
      <point x="34" y="829"/>
      <point x="34" y="720" type="curve" smooth="yes"/>
      <point x="34" y="611"/>
      <point x="126" y="522"/>
    </contour>
  </outline>
</glyph>
<glyph name="minus" format="2">
  <advance width="750"/>
  <unicode hex="2212"/>
  <outline>
    <contour>
      <point x="80" y="378" type="line"/>
      <point x="670" y="378" type="line"/>
      <point x="670" y="522" type="line"/>
      <point x="80" y="522" type="line"/>
    </contour>
  </outline>
</glyph>
<glyph name="lessequal" format="2">
  <advance width="750"/>
  <unicode hex="2264"/>
  <outline>
    <contour>
      <point x="678" y="188" type="line"/>
      <point x="678" y="345" type="line"/>
      <point x="438" y="460" type="line" smooth="yes"/>
      <point x="401" y="478"/>
      <point x="358" y="495"/>
      <point x="317" y="511" type="curve"/>
      <point x="358" y="528"/>
      <point x="401" y="545"/>
      <point x="438" y="563" type="curve" smooth="yes"/>
      <point x="678" y="679" type="line"/>
      <point x="678" y="834" type="line"/>
      <point x="24" y="512" type="line"/>
    </contour>
    <contour>
      <point x="72" y="50" type="line"/>
      <point x="678" y="50" type="line"/>
      <point x="678" y="166" type="line"/>
      <point x="72" y="166" type="line"/>
    </contour>
  </outline>
</glyph>
<glyph name="rightanglebracket-math" format="2">
  <advance width="480"/>
  <unicode hex="27E9"/>
  <outline>
    <contour>
      <point x="30" y="-180" type="line"/>
      <point x="201" y="-180" type="line"/>
      <point x="462" y="390" type="line"/>
      <point x="201" y="960" type="line"/>
      <point x="30" y="960" type="line"/>
      <point x="291" y="390" type="line"/>
    </contour>
  </outline>
</glyph>
<glyph name="acutecomb.case" format="2">
  <anchor x="270" y="900" name="_top"/>
  <anchor x="432" y="1170" name="top"/>
  <outline>
    <contour>
      <point x="181" y="978" type="line"/>
      <point x="343" y="978" type="line"/>
      <point x="549" y="1182" type="line"/>
      <point x="333" y="1182" type="line"/>
    </contour>
  </outline>
</glyph>
<glyph name="dieresiscomb.Odieresis.case" format="2">
  <anchor x="510" y="900" name="_top"/>
  <outline>
    <contour>
      <point x="792" y="906" type="curve" smooth="yes"/>
      <point x="847" y="906"/>
      <point x="888" y="947"/>
      <point x="888" y="1002" type="curve" smooth="yes"/>
      <point x="888" y="1057"/>
      <point x="847" y="1098"/>
      <point x="792" y="1098" type="curve" smooth="yes"/>
      <point x="737" y="1098"/>
      <point x="696" y="1057"/>
      <point x="696" y="1002" type="curve" smooth="yes"/>
      <point x="696" y="947"/>
      <point x="737" y="906"/>
    </contour>
    <contour>
      <point x="228" y="906" type="curve" smooth="yes"/>
      <point x="283" y="906"/>
      <point x="324" y="947"/>
      <point x="324" y="1002" type="curve" smooth="yes"/>
      <point x="324" y="1057"/>
      <point x="283" y="1098"/>
      <point x="228" y="1098" type="curve" smooth="yes"/>
      <point x="173" y="1098"/>
      <point x="132" y="1057"/>
      <point x="132" y="1002" type="curve" smooth="yes"/>
      <point x="132" y="947"/>
      <point x="173" y="906"/>
    </contour>
  </outline>
</glyph>
<glyph name="dollar.BRACKET.150" format="2">
  <advance width="750"/>
  <outline>
    <contour>
      <point x="336" y="-120" type="line"/>
      <point x="444" y="-120" type="line"/>
      <point x="444" y="990" type="line"/>
      <point x="336" y="990" type="line"/>
    </contour>
    <contour>
      <point x="376" y="-20" type="curve" smooth="yes"/>
      <point x="557" y="-20"/>
      <point x="670" y="100"/>
      <point x="670" y="256" type="curve" smooth="yes"/>
      <point x="670" y="415"/>
      <point x="552" y="484"/>
      <point x="481" y="519" type="curve" smooth="yes"/>
      <point x="374" y="572" type="line" smooth="yes"/>
      <point x="319" y="599"/>
      <point x="286" y="626"/>
      <point x="286" y="673" type="curve" smooth="yes"/>
      <point x="286" y="722"/>
      <point x="322" y="760"/>
      <point x="388" y="760" type="curve" smooth="yes"/>
      <point x="461" y="760"/>
      <point x="540" y="714"/>
      <point x="594" y="645" type="curve"/>
      <point x="640" y="840" type="line"/>
      <point x="588" y="879"/>
      <point x="502" y="920"/>
      <point x="396" y="920" type="curve" smooth="yes"/>
      <point x="225" y="920"/>
      <point x="116" y="817"/>
      <point x="116" y="666" type="curve" smooth="yes"/>
      <point x="116" y="527"/>
      <point x="206" y="463"/>
      <point x="299" y="417" type="curve" smooth="yes"/>
      <point x="405" y="364" type="line" smooth="yes"/>
      <point x="439" y="347"/>
      <point x="500" y="314"/>
      <point x="500" y="245" type="curve" smooth="yes"/>
      <point x="500" y="187"/>
      <point x="455" y="142"/>
      <point x="382" y="142" type="curve" smooth="yes"/>
      <point x="293" y="142"/>
      <point x="199" y="202"/>
      <point x="152" y="284" type="curve"/>
      <point x="103" y="84" type="line"/>
      <point x="162" y="26"/>
      <point x="266" y="-20"/>
    </contour>
  </outline>
</glyph>
<glyph name="dotaccentcomb.case" format="2">
  <anchor x="360" y="900" name="_top"/>
  <outline>
    <contour>
      <point x="360" y="984" type="curve" smooth="yes"/>
      <point x="414" y="984"/>
      <point x="456" y="1027"/>
      <point x="456" y="1080" type="curve" smooth="yes"/>
      <point x="456" y="1134"/>
      <point x="414" y="1176"/>
      <point x="360" y="1176" type="curve" smooth="yes"/>
      <point x="307" y="1176"/>
      <point x="264" y="1134"/>
      <point x="264" y="1080" type="curve" smooth="yes"/>
      <point x="264" y="1027"/>
      <point x="307" y="984"/>
    </contour>
  </outline>
</glyph>
<glyph name="equal.titl" format="2">
  <advance width="750"/>
  <outline>
    <contour>
      <point x="90" y="298" type="line"/>
      <point x="660" y="298" type="line"/>
      <point x="660" y="374" type="line"/>
      <point x="90" y="374" type="line"/>
    </contour>
    <contour>
      <point x="90" y="526" type="line"/>
      <point x="660" y="526" type="line"/>
      <point x="660" y="602" type="line"/>
      <point x="90" y="602" type="line"/>
    </contour>
  </outline>
</glyph>
<glyph name="f_f" format="2">
  <advance width="840"/>
  <outline>
    <contour>
      <point x="523" y="0" type="line"/>
      <point x="697" y="0" type="line"/>
      <point x="697" y="549" type="line"/>
      <point x="694" y="549" type="line"/>
      <point x="694" y="757" type="line" smooth="yes"/>
      <point x="694" y="818"/>
      <point x="728" y="837"/>
      <point x="760" y="837" type="curve" smooth="yes"/>
      <point x="787" y="837"/>
      <point x="810" y="825"/>
      <point x="830" y="800" type="curve"/>
      <point x="864" y="941" type="line"/>
      <point x="832" y="962"/>
      <point x="788" y="972"/>
      <point x="743" y="972" type="curve" smooth="yes"/>
      <point x="620" y="972"/>
      <point x="526" y="896"/>
      <point x="526" y="753" type="curve" smooth="yes"/>
      <point x="526" y="550" type="line"/>
      <point x="523" y="550" type="line"/>
    </contour>
    <contour>
      <point x="133" y="0" type="line"/>
      <point x="307" y="0" type="line"/>
      <point x="307" y="549" type="line"/>
      <point x="304" y="549" type="line"/>
      <point x="304" y="757" type="line" smooth="yes"/>
      <point x="304" y="818"/>
      <point x="338" y="837"/>
      <point x="370" y="837" type="curve" smooth="yes"/>
      <point x="397" y="837"/>
      <point x="420" y="825"/>
      <point x="440" y="800" type="curve"/>
      <point x="474" y="941" type="line"/>
      <point x="442" y="962"/>
      <point x="398" y="972"/>
      <point x="353" y="972" type="curve" smooth="yes"/>
      <point x="230" y="972"/>
      <point x="136" y="896"/>
      <point x="136" y="753" type="curve" smooth="yes"/>
      <point x="136" y="550" type="line"/>
      <point x="133" y="550" type="line"/>
    </contour>
    <contour>
      <point x="30" y="462" type="line"/>
      <point x="810" y="462" type="line"/>
      <point x="810" y="600" type="line"/>
      <point x="30" y="600" type="line"/>
    </contour>
  </outline>
</glyph>
<glyph name="minus.titl" format="2">
  <advance width="750"/>
  <outline>
    <contour>
      <point x="90" y="411" type="line"/>
      <point x="660" y="411" type="line"/>
      <point x="660" y="489" type="line"/>
      <point x="90" y="489" type="line"/>
    </contour>
  </outline>
</glyph>
<glyph name="multiply.titl" format="2">
  <advance width="750"/>
  <outline>
    <contour>
      <point x="569" y="198" type="line"/>
      <point x="627" y="256" type="line"/>
      <point x="181" y="702" type="line"/>
      <point x="123" y="644" type="line"/>
    </contour>
    <contour>
      <point x="178" y="198" type="line"/>
      <point x="627" y="647" type="line"/>
      <point x="572" y="702" type="line"/>
      <point x="123" y="253" type="line"/>
    </contour>
  </outline>
</glyph>
<glyph name="o.slash" format="2">
  <advance width="720"/>
  <anchor x="360" y="0" name="bottom"/>
  <anchor x="360" y="300" name="center"/>
  <anchor x="390" y="0" name="ogonek"/>
  <anchor x="360" y="600" name="top"/>
  <anchor x="548" y="600" name="topright"/>
  <outline>
    <contour>
      <point x="360" y="-20" type="curve" smooth="yes"/>
      <point x="539" y="-20"/>
      <point x="684" y="123"/>
      <point x="684" y="300" type="curve" smooth="yes"/>
      <point x="684" y="477"/>
      <point x="539" y="620"/>
      <point x="360" y="620" type="curve" smooth="yes"/>
      <point x="181" y="620"/>
      <point x="36" y="477"/>
      <point x="36" y="300" type="curve" smooth="yes"/>
      <point x="36" y="123"/>
      <point x="181" y="-20"/>
    </contour>
    <contour>
      <point x="360" y="130" type="curve" smooth="yes"/>
      <point x="267" y="130"/>
      <point x="193" y="206"/>
      <point x="193" y="300" type="curve" smooth="yes"/>
      <point x="193" y="394"/>
      <point x="267" y="470"/>
      <point x="360" y="470" type="curve" smooth="yes"/>
      <point x="452" y="470"/>
      <point x="527" y="394"/>
      <point x="527" y="300" type="curve" smooth="yes"/>
      <point x="527" y="206"/>
      <point x="452" y="130"/>
    </contour>
  </outline>
</glyph>
<glyph name="ringcomb_acutecomb" format="2">
  <anchor x="360" y="600" name="_top"/>
  <outline>
    <contour>
      <point x="360" y="645" type="curve" smooth="yes"/>
      <point x="437" y="645"/>
      <point x="498" y="703"/>
      <point x="498" y="780" type="curve" smooth="yes"/>
      <point x="498" y="856"/>
      <point x="435" y="915"/>
      <point x="360" y="915" type="curve" smooth="yes"/>
      <point x="284" y="915"/>
      <point x="222" y="856"/>
      <point x="222" y="780" type="curve" smooth="yes"/>
      <point x="222" y="704"/>
      <point x="284" y="645"/>
    </contour>
    <contour>
      <point x="360" y="726" type="curve" smooth="yes"/>
      <point x="330" y="726"/>
      <point x="306" y="750"/>
      <point x="306" y="780" type="curve" smooth="yes"/>
      <point x="306" y="810"/>
      <point x="330" y="834"/>
      <point x="360" y="834" type="curve" smooth="yes"/>
      <point x="389" y="834"/>
      <point x="414" y="810"/>
      <point x="414" y="780" type="curve" smooth="yes"/>
      <point x="414" y="750"/>
      <point x="390" y="726"/>
    </contour>
    <contour>
      <point x="298" y="957" type="line"/>
      <point x="424" y="957" type="line"/>
      <point x="517" y="1092" type="line"/>
      <point x="360" y="1092" type="line"/>
    </contour>
  </outline>
</glyph>
<glyph name="slashshortcomb.case" format="2">
  <anchor x="213" y="300" name="_center"/>
  <outline>
    <contour>
      <point x="62" y="158" type="line"/>
      <point x="534" y="420" type="line"/>
      <point x="478" y="520" type="line"/>
      <point x="6" y="258" type="line"/>
    </contour>
  </outline>
</glyph>
<glyph name="two.lf" format="2">
  <advance width="690"/>
  <outline>
    <contour>
      <point x="56" y="0" type="line"/>
      <point x="646" y="0" type="line"/>
      <point x="646" y="162" type="line"/>
      <point x="234" y="162" type="line"/>
      <point x="315" y="100" type="line"/>
      <point x="562" y="448" type="line" smooth="yes"/>
      <point x="612" y="519"/>
      <point x="635" y="572"/>
      <point x="635" y="636" type="curve" smooth="yes"/>
      <point x="635" y="793"/>
      <point x="499" y="920"/>
      <point x="337" y="920" type="curve" smooth="yes"/>
      <point x="171" y="920"/>
      <point x="44" y="788"/>
      <point x="44" y="637" type="curve" smooth="yes"/>
      <point x="44" y="595"/>
      <point x="54" y="556"/>
      <point x="75" y="518" type="curve"/>
      <point x="271" y="518" type="line"/>
      <point x="232" y="551"/>
      <point x="212" y="592"/>
      <point x="212" y="636" type="curve" smooth="yes"/>
      <point x="212" y="704"/>
      <point x="265" y="758"/>
      <point x="336" y="758" type="curve" smooth="yes"/>
      <point x="407" y="758"/>
      <point x="461" y="704"/>
      <point x="461" y="636" type="curve" smooth="yes"/>
      <point x="461" y="610"/>
      <point x="453" y="583"/>
      <point x="422" y="537" type="curve" smooth="yes"/>
    </contour>
  </outline>
</glyph>
